<svg id="Layer_1" data-name="Layer 1" xmlns="http://www.w3.org/2000/svg" viewBox="0 0 512 512"><title>price-tag-glyph</title><path d="M505.75,91.58,420.42,6.25A21.34,21.34,0,0,0,405.33,0h-128a21.34,21.34,0,0,0-15.08,6.25l-256,256a21.33,21.33,0,0,0,0,30.17L219.58,505.75a21.33,21.33,0,0,0,30.17,0l256-256A21.34,21.34,0,0,0,512,234.67v-128A21.34,21.34,0,0,0,505.75,91.58ZM260.65,345.49a21.33,21.33,0,0,1-30.17,0l-64-64.05a21.33,21.33,0,0,1,30.2-30.15l64,64.05A21.33,21.33,0,0,1,260.65,345.49ZM321,285.19a21.33,21.33,0,0,1-30.17,0L226.86,221.1A21.33,21.33,0,0,1,257.06,191L321,255A21.33,21.33,0,0,1,321,285.19Zm52.35-114.52a32,32,0,1,1,32-32A32,32,0,0,1,373.33,170.67Z"/></svg>